<mxfile host="app.diagrams.net" modified="2024-04-30T15:03:24.853Z" agent="Mozilla/5.0 (Windows NT 10.0; Win64; x64) AppleWebKit/537.36 (KHTML, like Gecko) Chrome/124.0.0.0 Safari/537.36" etag="x7Ra5aPsMJQJ7kq5fw3Y" version="24.2.7" type="device">
  <diagram name="第 1 页" id="M1-pd5s9-K47yWXL6qFL">
    <mxGraphModel dx="1219" dy="855" grid="0" gridSize="10" guides="1" tooltips="1" connect="1" arrows="1" fold="1" page="0" pageScale="1" pageWidth="850" pageHeight="1100" math="0" shadow="0">
      <root>
        <mxCell id="0" />
        <mxCell id="1" parent="0" />
        <mxCell id="lxEQiiGNiRmGNAisGGb4-1" value="" style="html=1;verticalLabelPosition=bottom;align=center;labelBackgroundColor=#ffffff;verticalAlign=top;strokeWidth=2;strokeColor=#0080F0;shadow=0;dashed=0;shape=mxgraph.ios7.icons.data;" vertex="1" parent="1">
          <mxGeometry x="-155" y="97.95" width="48" height="54.1" as="geometry" />
        </mxCell>
        <mxCell id="lxEQiiGNiRmGNAisGGb4-2" value="" style="html=1;verticalLabelPosition=bottom;align=center;labelBackgroundColor=#ffffff;verticalAlign=top;strokeWidth=2;strokeColor=#0080F0;shadow=0;dashed=0;shape=mxgraph.ios7.icons.monitor;" vertex="1" parent="1">
          <mxGeometry x="-322" y="-38" width="88" height="53" as="geometry" />
        </mxCell>
        <mxCell id="lxEQiiGNiRmGNAisGGb4-3" value="" style="shape=image;html=1;verticalAlign=top;verticalLabelPosition=bottom;labelBackgroundColor=#ffffff;imageAspect=0;aspect=fixed;image=https://cdn2.iconfinder.com/data/icons/crystalproject/128x128/mimetypes/binary.png" vertex="1" parent="1">
          <mxGeometry x="-171" y="-48" width="73" height="73" as="geometry" />
        </mxCell>
        <mxCell id="lxEQiiGNiRmGNAisGGb4-4" value="" style="image;aspect=fixed;html=1;points=[];align=center;fontSize=12;image=img/lib/azure2/iot/Time_Series_Insights_Environments.svg;" vertex="1" parent="1">
          <mxGeometry x="-311.5" y="91" width="67" height="68" as="geometry" />
        </mxCell>
        <mxCell id="lxEQiiGNiRmGNAisGGb4-8" value="Status Monitor" style="rounded=1;whiteSpace=wrap;html=1;fillColor=#dae8fc;strokeColor=#6c8ebf;" vertex="1" parent="1">
          <mxGeometry x="-327" y="37" width="103" height="33" as="geometry" />
        </mxCell>
        <mxCell id="lxEQiiGNiRmGNAisGGb4-9" value="ECU Program" style="rounded=1;whiteSpace=wrap;html=1;fillColor=#dae8fc;strokeColor=#6c8ebf;" vertex="1" parent="1">
          <mxGeometry x="-182.5" y="37" width="103" height="33" as="geometry" />
        </mxCell>
        <mxCell id="lxEQiiGNiRmGNAisGGb4-10" value="Auto Injection" style="rounded=1;whiteSpace=wrap;html=1;fillColor=#dae8fc;strokeColor=#6c8ebf;" vertex="1" parent="1">
          <mxGeometry x="-329.5" y="163" width="103" height="33" as="geometry" />
        </mxCell>
        <mxCell id="lxEQiiGNiRmGNAisGGb4-11" value="Labeled Data Export" style="rounded=1;whiteSpace=wrap;html=1;fillColor=#dae8fc;strokeColor=#6c8ebf;" vertex="1" parent="1">
          <mxGeometry x="-186" y="163" width="103" height="33" as="geometry" />
        </mxCell>
        <mxCell id="lxEQiiGNiRmGNAisGGb4-12" value="" style="shape=mxgraph.signs.transportation.car_2;html=1;pointerEvents=1;fillColor=#000000;strokeColor=none;verticalLabelPosition=bottom;verticalAlign=top;align=center;" vertex="1" parent="1">
          <mxGeometry x="-13" y="2" width="100" height="33" as="geometry" />
        </mxCell>
        <mxCell id="lxEQiiGNiRmGNAisGGb4-13" value="" style="sketch=0;pointerEvents=1;shadow=0;dashed=0;html=1;strokeColor=none;fillColor=#505050;labelPosition=center;verticalLabelPosition=bottom;verticalAlign=top;outlineConnect=0;align=center;shape=mxgraph.office.concepts.document;" vertex="1" parent="1">
          <mxGeometry x="182" y="-17" width="30" height="35" as="geometry" />
        </mxCell>
        <mxCell id="lxEQiiGNiRmGNAisGGb4-14" value="" style="shape=image;html=1;verticalAlign=top;verticalLabelPosition=bottom;labelBackgroundColor=#ffffff;imageAspect=0;aspect=fixed;image=https://cdn2.iconfinder.com/data/icons/whcompare-servers-web-hosting/50/website-migration-128.png" vertex="1" parent="1">
          <mxGeometry x="2.5" y="-62" width="69" height="69" as="geometry" />
        </mxCell>
      </root>
    </mxGraphModel>
  </diagram>
</mxfile>
